<svg width="428px" height="428px" viewBox="0 0 428 428" version="1.1" xmlns="http://www.w3.org/2000/svg" xmlns:xlink="http://www.w3.org/1999/xlink"><defs><polygon id="path-1" points="0 427.389973 427.40737 427.389973 427.40737 0 0 0"></polygon></defs><g id="Symbols" stroke="none" stroke-width="1" fill="none" fill-rule="evenodd" opacity="0.200000003"><g id="Footer/Desktop" transform="translate(-938.000000, 0.000000)"><g id="Logo-footer" transform="translate(938.000000, 0.000000)"><g id="curve"><path d="M0.470315705,142.451726 L142.469703,142.451726 L142.469703,0 L133.898475,0 C132.703838,0.0173976216 131.486005,0.0637912793 130.308766,0.0637912793 C74.5203925,0.0637912793 9.23291779,23.1852304 0.470315705,142.451726 L0.470315705,142.451726 Z" id="Fill-1" fill="#7199CF"></path><path d="M130.308186,0.0637912793 C131.485425,0.0637912793 132.703259,0.0173976216 133.897895,0 L0,0 L0,142.451726 L0.469735784,142.451726 C9.23233787,23.1852304 74.5198126,0.0637912793 130.308186,0.0637912793" id="Fill-3" fill="#5876AA"></path><path d="M284.944626,142.451726 C262.495895,95.7043165 225.288182,0 142.469703,0 L142.469703,142.451726" id="Fill-5" fill="#91ADDA"></path><path d="M284.944626,142.451726 L284.944626,0 L142.469703,0 C225.288182,0 262.495895,95.7043165 284.944626,142.451726" id="Fill-7" fill="#5876AA"></path><mask id="mask-2" fill="white">	<use xlink:href="#path-1"></use></mask><g id="Clip-10"></g><polygon id="Fill-9" fill="#B2C4E5" mask="url(#mask-2)" points="284.944046 142.451726 427.401571 142.451726 427.401571 0 284.944046 0"></polygon><polygon id="Fill-11" fill="#91ADDA" mask="url(#mask-2)" points="0 284.932448 142.469123 284.932448 142.469123 142.451726 0 142.451726"></polygon><polyline id="Fill-12" fill="#5876AA" mask="url(#mask-2)" points="142.469703 284.932448 213.707165 284.932448 142.469703 142.451726"></polyline><polyline id="Fill-13" fill="#B2C4E5" mask="url(#mask-2)" points="213.707165 284.932448 284.944626 284.932448 284.944626 142.451726 142.469703 142.451726"></polyline><polyline id="Fill-14" fill="#91ADDA" mask="url(#mask-2)" points="356.187307 284.932448 284.944046 142.451726 284.944046 284.932448"></polyline><polyline id="Fill-15" fill="#5876AA" mask="url(#mask-2)" points="356.187307 284.932448 427.40737 284.932448 427.40737 142.451726 284.944046 142.451726"></polyline><polygon id="Fill-16" fill="#7199CF" mask="url(#mask-2)" points="0 427.389973 142.469123 427.389973 142.469123 284.932448 0 284.932448"></polygon><polyline id="Fill-17" fill="#7199CF" mask="url(#mask-2)" points="213.707165 284.932448 284.944626 427.389973 284.944626 284.932448"></polyline><polyline id="Fill-18" fill="#91ADDA" mask="url(#mask-2)" points="142.469703 284.932448 142.469703 427.389973 284.944626 427.389973 213.707165 284.932448"></polyline><polyline id="Fill-19" fill="#91ADDA" mask="url(#mask-2)" points="427.40737 427.389973 427.40737 284.932448 356.187307 284.932448"></polyline><polyline id="Fill-20" fill="#5876AA" mask="url(#mask-2)" points="284.944626 284.932448 284.944626 427.389973 427.40795 427.389973 356.187887 284.932448"></polyline></g></g></g></g></svg>